<mxfile host="app.diagrams.net" modified="2023-12-16T09:21:36.832Z" agent="Mozilla/5.0 (X11; Linux x86_64) AppleWebKit/537.36 (KHTML, like Gecko) Chrome/109.0.0.0 Safari/537.36" version="22.1.11" etag="j3w2PU0wrCaEJwbFhHFi" type="github">
  <diagram name="페이지-1" id="z8q0V6hGnb0BCaq6sYmy">
    <mxGraphModel>
      <root>
        <mxCell id="0" />
        <mxCell id="1" parent="0" />
      </root>
    </mxGraphModel>
  </diagram>
</mxfile>
